<?xml version="1.0" encoding="utf-8"?>
<!-- Generator: Adobe Illustrator 16.0.0, SVG Export Plug-In . SVG Version: 6.00 Build 0)  -->
<!DOCTYPE svg PUBLIC "-//W3C//DTD SVG 1.1//EN" "http://www.w3.org/Graphics/SVG/1.1/DTD/svg11.dtd">
<svg version="1.1" id="Layer_1" xmlns="http://www.w3.org/2000/svg" xmlns:xlink="http://www.w3.org/1999/xlink" x="0px" y="0px"
	 width="300px" height="200px" viewBox="0 0 300 200" enable-background="new 0 0 300 200" xml:space="preserve">
<g>
	<path fill="#1F3363" d="M34,189c0,6.627-5.373,12-12,12H11c-6.627,0-12-5.373-12-12V32c0-6.627,5.373-12,12-12h11
		c6.627,0,12,5.373,12,12V189z"/>
</g>
<g>
	<path fill="#1F3363" d="M97,190.878c0,4.393-4.873,9.122-11.5,9.122h-11c-6.627,0-12.5-4.729-12.5-9.122V86.789
		C62,82.396,67.873,80,74.5,80h11c6.627,0,11.5,2.396,11.5,6.789V190.878z"/>
</g>
<g>
	<path fill="#1F3363" d="M167,189c0,6.627-5.373,12-12,12h-11c-6.627,0-12-5.373-12-12V32c0-6.627,5.373-12,12-12h11
		c6.627,0,12,5.373,12,12V189z"/>
</g>
<g>
	<path fill="#1F3363" d="M233,132.878c0,4.393-4.873,9.122-11.5,9.122h-11c-6.627,0-12.5-4.729-12.5-9.122V28.789
		c0-4.394,5.873-6.789,12.5-6.789h11c6.627,0,11.5,2.395,11.5,6.789V132.878z"/>
</g>
<g>
	<path fill="#1F3363" d="M299,189c0,6.627-5.373,12-12,12h-11c-6.627,0-12-5.373-12-12V32c0-6.627,5.373-12,12-12h11
		c6.627,0,12,5.373,12,12V189z"/>
</g>
</svg>
